<?xml version="1.0" encoding="UTF-8"?>
<!-- Created with Inkscape (http://www.inkscape.org/) -->
<svg id="svg5" width="33.879mm" height="20.964mm" version="1.1" viewBox="0 0 33.879 20.964" xmlns="http://www.w3.org/2000/svg">
 <g id="layer1" transform="translate(-81.091 -152.3)">
  <rect id="rect1207" x="81.264" y="152.47" width="33.533" height="20.619" fill="#fff" stroke="#000" stroke-linecap="round" stroke-linejoin="round" stroke-width=".34558"/>
  <g id="text186" stroke-width=".26458" aria-label="STUDIO">
   <path id="path397" d="m84.753 162.46q-0.66675 0-0.96308-0.25399-0.28575-0.254-0.30692-0.83609-0.01058-0.37041-0.02117-0.66674 0-0.29634 0-0.60325 0.01058-0.30692 0.02117-0.68792h0.42333q-0.01058 0.51859-0.02117 0.98425 0 0.45508 0.02117 0.97366 0.02117 0.40217 0.1905 0.55034 0.16933 0.13758 0.64558 0.13758 0.46566 0 0.62442-0.13758 0.16933-0.14817 0.1905-0.55034 0.02117-0.39158 0.01058-0.88899 0-0.49742-0.01058-0.889-0.01058-0.53975-0.15875-0.762-0.14817-0.23283-0.5715-0.33866l-0.381-0.0953q-0.35983-0.0952-0.5715-0.26458-0.20108-0.16934-0.29633-0.47625-0.08467-0.3175-0.09525-0.84667-0.01058-0.40216-0.01058-0.87841 0.01058-0.47625 0.02117-0.96308 0.01058-0.58208 0.29633-0.8255 0.28575-0.254 0.9525-0.254 0.62442 0 0.91016 0.254 0.28575 0.24342 0.29633 0.83608 0.01058 0.762 0 1.7674h-0.42333q0.02117-0.55033 0.02117-0.96308t-0.02117-0.80433q-0.01058-0.40216-0.17992-0.53975-0.15875-0.14816-0.61383-0.14816-0.45508 0-0.62442 0.14816-0.16933 0.13759-0.1905 0.53975-0.01058 0.48683-0.01058 0.92075 0 0.42333 0.01058 0.91016 0.01058 0.59267 0.11642 0.8255 0.11642 0.23283 0.41275 0.3175l0.39158 0.0952q0.43392 0.10583 0.67733 0.27516 0.24342 0.16934 0.34925 0.46567t0.11642 0.80433q0.02117 0.42333 0.02117 0.89958t-0.02117 0.87841q-0.02117 0.58209-0.30692 0.83609-0.27517 0.25399-0.92075 0.25399z"/>
   <path id="path399" d="m88.129 162.41v-8.0645h-1.1853v-0.40216h2.794v0.40216h-1.1853v8.0645z"/>
   <path id="path401" d="m92.034 162.46q-0.64558 0-0.93133-0.24341-0.28575-0.254-0.29633-0.81492-0.02117-1.8944-0.02117-3.7253 0.01058-1.8415 0.02117-3.7359h0.42333q-0.01058 1.8944-0.01058 3.7359 0 1.8309 0 3.7253 0 0.37042 0.16933 0.508 0.16933 0.127 0.64558 0.127 0.47625 0 0.635-0.127 0.16933-0.13758 0.16933-0.508 0-1.8944 0.01058-3.7253 0.01058-1.8415-0.01058-3.7359h0.42333q0.02117 1.8944 0.02117 3.7359 0 1.8309-0.02117 3.7253-0.01058 0.56092-0.29633 0.81492-0.27516 0.24341-0.93133 0.24341z"/>
   <path id="path403" d="m94.754 162.41v-8.4666h1.2277q0.65616 0 0.93133 0.23283 0.28575 0.22225 0.29633 0.75142 0.02117 1.1642 0.02117 2.2119 0.01058 1.0372 0 2.0849 0 1.0372-0.02117 2.2013-0.01058 0.51858-0.27517 0.75142-0.26458 0.23283-0.85725 0.23283zm0.42333-0.40217h0.89958q0.41275 0 0.55033-0.127 0.14817-0.127 0.15875-0.45508 0.02117-0.9525 0.03175-1.7357t0.01058-1.5134-0.01058-1.5134q-0.01058-0.78317-0.03175-1.7357-0.01058-0.33867-0.17992-0.45509-0.15875-0.127-0.62442-0.127h-0.80433z"/>
   <path id="path405" d="m98.712 162.41v-8.4666h0.42333v8.4666z" fill="none"/>
   <path id="path407" d="m101.9 162.46q-0.65617 0-0.9525-0.26458-0.28575-0.27516-0.29633-0.89958-0.0106-0.91016-0.0212-1.6722 0-0.77258 0-1.4817 0-0.71967 0-1.4605 0.0106-0.75141 0.0212-1.6192 0.0106-0.62442 0.29633-0.89958 0.29633-0.27517 0.9525-0.27517 0.65616 0 0.94191 0.27517 0.29633 0.27516 0.30692 0.89958 0.0106 0.86783 0.0106 1.6192 0.0106 0.74083 0.0106 1.4605 0 0.70908-0.0106 1.4817 0 0.762-0.0106 1.6722-0.0106 0.62442-0.30692 0.89958-0.28575 0.26458-0.94191 0.26458zm0-0.40216q0.47625 0 0.64558-0.14817 0.16933-0.15875 0.17992-0.61383 0.0212-0.9525 0.0212-1.6933 0.0106-0.74083 0.0106-1.4182t-0.0106-1.4182q0-0.75141-0.0212-1.7039-0.0106-0.45508-0.17992-0.61383-0.16933-0.15875-0.64558-0.15875t-0.64558 0.15875q-0.16934 0.15875-0.17992 0.61383-0.0106 0.92075-0.0212 1.651-0.0106 0.73025-0.0106 1.4182 0 0.67733 0.0106 1.4393 0.0106 0.75142 0.0212 1.7251 0.0106 0.45508 0.17992 0.61383 0.16933 0.14817 0.64558 0.14817z"/>
  </g>
  <g id="text194" stroke-width=".26458" aria-label="DRISHTI">
   <path id="path457" d="m91.105 171.62v-8.4666h1.2277q0.65616 0 0.93133 0.23283 0.28575 0.22225 0.29633 0.75142 0.02117 1.1642 0.02117 2.2119 0.01058 1.0372 0 2.0849 0 1.0372-0.02117 2.2013-0.01058 0.51858-0.27517 0.75142-0.26458 0.23283-0.85725 0.23283zm0.42333-0.40217h0.89958q0.41275 0 0.55033-0.127 0.14817-0.12699 0.15875-0.45508 0.02117-0.95249 0.03175-1.7357 0.01058-0.78316 0.01058-1.5134t-0.01058-1.5134q-0.01058-0.78317-0.03175-1.7357-0.01058-0.33867-0.17992-0.45508-0.15875-0.127-0.62442-0.127h-0.80433z"/>
   <path id="path459" d="m95.064 171.62v-8.4666h1.2806q0.58208 0 0.84666 0.23283 0.26458 0.22225 0.27517 0.75142 0.03175 0.92074 0.03175 1.6298 0 0.70908-0.03175 1.4287-0.03175 0.74083-0.59266 0.91016l0.78316 3.5137h-0.4445l-0.762-3.4502h-0.96308v3.4502zm0.42333-3.8523h0.84666q0.40216 0 0.55033-0.11642 0.14817-0.127 0.15875-0.45508 0.02117-0.60325 0.02117-1.0689 0.01058-0.46567 0.01058-0.92075 0-0.46566-0.03175-1.0689-0.01058-0.33867-0.15875-0.45508-0.13758-0.127-0.53975-0.127h-0.85725z"/>
   <path id="path461" d="m98.821 171.62v-8.4666h0.42333v8.4666z" fill="none"/>
   <path id="path463" d="m102.01 171.68q-0.66674 0-0.96308-0.254-0.28575-0.254-0.30691-0.83608-0.0106-0.37042-0.0212-0.66675 0-0.29633 0-0.60325 0.0106-0.30692 0.0212-0.68791h0.42333q-0.0106 0.51858-0.0212 0.98424 0 0.45508 0.0212 0.97367 0.0212 0.40216 0.1905 0.55033 0.16933 0.13758 0.64558 0.13758 0.46567 0 0.62442-0.13758 0.16933-0.14817 0.1905-0.55033 0.0212-0.39159 0.0106-0.889 0-0.49742-0.0106-0.889-0.0106-0.53975-0.15875-0.762-0.14817-0.23283-0.5715-0.33866l-0.381-0.0953q-0.35983-0.0952-0.5715-0.26458-0.20108-0.16934-0.29633-0.47625-0.0847-0.3175-0.0952-0.84667-0.0106-0.40216-0.0106-0.87841 0.0106-0.47625 0.0212-0.96308 0.0106-0.58208 0.29633-0.8255 0.28575-0.254 0.9525-0.254 0.62442 0 0.91016 0.254 0.28575 0.24342 0.29634 0.83608 0.0106 0.762 0 1.7674h-0.42333q0.0212-0.55033 0.0212-0.96308 0-0.41274-0.0212-0.80433-0.0106-0.40216-0.17992-0.53974-0.15875-0.14817-0.61383-0.14817t-0.62442 0.14817q-0.16933 0.13758-0.1905 0.53974-0.0106 0.48684-0.0106 0.92075 0 0.42333 0.0106 0.91016 0.0106 0.59267 0.11642 0.8255 0.11642 0.23283 0.41275 0.3175l0.39158 0.0952q0.43392 0.10583 0.67733 0.27517 0.24342 0.16933 0.34925 0.46566t0.11642 0.80433q0.0212 0.42333 0.0212 0.89958t-0.0212 0.87842q-0.0212 0.58208-0.30692 0.83608-0.27516 0.254-0.92075 0.254z"/>
   <path id="path465" d="m104.73 171.62v-8.4666h0.42333v4.0322h1.6933v-4.0322h0.42333v8.4666h-0.42333v-4.0322h-1.6933v4.0322z"/>
   <path id="path467" d="m109.51 171.62v-8.0645h-1.1853v-0.40217h2.794v0.40217h-1.1853v8.0645z"/>
   <path id="path469" d="m112.18 171.62v-8.4666h0.42334v8.4666z"/>
  </g>
  <rect id="rect464" x="98.719" y="153.94" width=".41129" height="17.686" fill="#066ff6"/>
 </g>
</svg>
